<svg xmlns="http://www.w3.org/2000/svg" viewBox="0 0 1000 250" width="100%" height="100%">
  <defs>
    <style>
      .bg-circle { fill: #0e0d21; }
      .glove-blue { fill: #28a9e0; }
      .glove-blue-stroke { stroke: #28a9e0; stroke-width: 11; stroke-linecap: round; }
      .gap-line { stroke: #0e0d21; stroke-width: 4; stroke-linecap: round; }
      .brand-text {
        font-family: 'Montserrat', 'Helvetica Neue', 'Segoe UI', Arial, sans-serif;
        font-weight: 700;
        fill: #0e0d21;
        font-size: 104px;
        letter-spacing: 0.16em;
      }
    </style>
  </defs>

  <circle class="bg-circle" cx="125" cy="125" r="110" />

  <g id="glove-hand">
    <polygon class="glove-blue" points="90,205 130,205 150,158 131,140 89,140 70,158" />
    
    <path class="gap-line" d="M 68,160 L 89,142 L 131,142 L 152,160" fill="none" />

    <line class="glove-blue-stroke" x1="77" y1="150" x2="77" y2="85" />
    <circle class="glove-blue" cx="77" cy="85" r="10" />
    <circle class="bg-circle" cx="77" cy="85" r="4" />

    <line class="glove-blue-stroke" x1="93" y1="135" x2="93" y2="70" />
    <circle class="glove-blue" cx="93" cy="70" r="10" />
    <circle class="bg-circle" cx="93" cy="70" r="4" />

    <line class="glove-blue-stroke" x1="109" y1="135" x2="109" y2="55" />
    <circle class="glove-blue" cx="109" cy="55" r="10" />
    <circle class="bg-circle" cx="109" cy="55" r="4" />

    <line class="glove-blue-stroke" x1="125" y1="135" x2="125" y2="65" />
    <circle class="glove-blue" cx="125" cy="65" r="10" />
    <circle class="bg-circle" cx="125" cy="65" r="4" />

    <line class="glove-blue-stroke" x1="126" y1="205" x2="159" y2="135" />
    <circle class="glove-blue" cx="159" cy="135" r="10" />
    <circle class="bg-circle" cx="159" cy="135" r="4" />
    
    <line class="gap-line" x1="131" y1="205" x2="151" y2="161" />
  </g>

  <text class="brand-text" x="245" y="162">SENSEGLOVE</text>
</svg>
